<svg xmlns="http://www.w3.org/2000/svg" width="800" height="600" viewBox="0 0 800 600" role="img" aria-label="Apartman Mihael preview">
  <defs>
    <linearGradient id="bg" x1="0%" y1="0%" x2="100%" y2="100%">
      <stop offset="0%" stop-color="#0c1224"/>
      <stop offset="100%" stop-color="#1e293b"/>
    </linearGradient>
    <linearGradient id="accent" x1="0%" y1="0%" x2="100%" y2="0%">
      <stop offset="0%" stop-color="#06b6d4"/>
      <stop offset="100%" stop-color="#0ea5e9"/>
    </linearGradient>
    <linearGradient id="sky" x1="0%" y1="0%" x2="0%" y2="100%">
      <stop offset="0%" stop-color="#0ea5e9" stop-opacity="0.4"/>
      <stop offset="100%" stop-color="#0f172a" stop-opacity="0"/>
    </linearGradient>
  </defs>
  <rect width="800" height="600" fill="url(#bg)"/>
  <rect x="48" y="48" width="704" height="504" rx="24" fill="#111827" stroke="#334155" stroke-width="2"/>
  <!-- Hero band -->
  <rect x="96" y="96" width="608" height="220" rx="16" fill="url(#sky)"/>
  <!-- House silhouette -->
  <path d="M 200 300 L 320 200 L 440 300 L 440 300 L 440 300 Z" fill="#164e63" opacity="0.6"/>
  <rect x="200" y="290" width="240" height="26" fill="#0e7490" opacity="0.5"/>
  <!-- Title -->
  <rect x="96" y="340" width="180" height="24" rx="12" fill="url(#accent)" opacity="0.9"/>
  <rect x="96" y="380" width="520" height="14" rx="7" fill="#475569"/>
  <rect x="96" y="404" width="440" height="14" rx="7" fill="#334155"/>
  <!-- Amenity chips -->
  <rect x="96" y="440" width="100" height="28" rx="14" fill="#1f2937" stroke="#334155"/>
  <rect x="208" y="440" width="120" height="28" rx="14" fill="#1f2937" stroke="#334155"/>
  <rect x="340" y="440" width="100" height="28" rx="14" fill="#1f2937" stroke="#334155"/>
  <text x="400" y="510" text-anchor="middle" fill="#f8fafc" font-family="system-ui,sans-serif" font-size="24" font-weight="700">Apartman Mihael</text>
  <text x="400" y="536" text-anchor="middle" fill="#94a3b8" font-family="system-ui,sans-serif" font-size="14">Cloudflare Pages · Rezervacije &amp; galerija</text>
</svg>
