<svg xmlns="http://www.w3.org/2000/svg" width="800" height="600" viewBox="0 0 800 600" role="img" aria-label="Protos Admin Console preview">
  <defs>
    <linearGradient id="bg" x1="0%" y1="0%" x2="100%" y2="100%">
      <stop offset="0%" stop-color="#020617"/>
      <stop offset="100%" stop-color="#0f172a"/>
    </linearGradient>
    <linearGradient id="accent" x1="0%" y1="0%" x2="100%" y2="0%">
      <stop offset="0%" stop-color="#818cf8"/>
      <stop offset="100%" stop-color="#6366f1"/>
    </linearGradient>
  </defs>
  <rect width="800" height="600" fill="url(#bg)"/>
  <rect x="48" y="48" width="704" height="504" rx="24" fill="#0b1220" stroke="#1e293b" stroke-width="2"/>
  <!-- Sidebar -->
  <rect x="72" y="72" width="140" height="456" rx="12" fill="#0f172a" stroke="#1e293b"/>
  <rect x="88" y="96" width="108" height="12" rx="6" fill="url(#accent)"/>
  <rect x="88" y="132" width="108" height="8" rx="4" fill="#334155"/>
  <rect x="88" y="152" width="80" height="8" rx="4" fill="#334155"/>
  <rect x="88" y="172" width="96" height="8" rx="4" fill="#334155"/>
  <rect x="88" y="200" width="108" height="26" rx="6" fill="#1e293b" stroke="#818cf8" stroke-width="1"/>
  <rect x="88" y="234" width="108" height="8" rx="4" fill="#334155"/>
  <rect x="88" y="254" width="80" height="8" rx="4" fill="#334155"/>
  <!-- Main content: KPI cards -->
  <rect x="232" y="72" width="152" height="80" rx="10" fill="#0f172a" stroke="#1e293b"/>
  <rect x="248" y="90" width="60" height="8" rx="4" fill="#475569"/>
  <rect x="248" y="108" width="90" height="18" rx="4" fill="#818cf8"/>
  <rect x="248" y="134" width="120" height="6" rx="3" fill="#22c55e"/>
  <rect x="404" y="72" width="152" height="80" rx="10" fill="#0f172a" stroke="#1e293b"/>
  <rect x="420" y="90" width="60" height="8" rx="4" fill="#475569"/>
  <rect x="420" y="108" width="90" height="18" rx="4" fill="#06b6d4"/>
  <rect x="420" y="134" width="80" height="6" rx="3" fill="#f97316"/>
  <rect x="576" y="72" width="152" height="80" rx="10" fill="#0f172a" stroke="#1e293b"/>
  <rect x="592" y="90" width="60" height="8" rx="4" fill="#475569"/>
  <rect x="592" y="108" width="90" height="18" rx="4" fill="#f59e0b"/>
  <rect x="592" y="134" width="100" height="6" rx="3" fill="#ef4444"/>
  <!-- Chart area -->
  <rect x="232" y="172" width="496" height="180" rx="10" fill="#0f172a" stroke="#1e293b"/>
  <polyline points="256,320 320,290 384,270 448,240 512,260 576,220 640,210 704,180" stroke="#818cf8" stroke-width="2" fill="none"/>
  <polyline points="256,330 320,320 384,300 448,290 512,270 576,260 640,250 704,240" stroke="#06b6d4" stroke-width="2" fill="none" opacity="0.6"/>
  <!-- Data table skeleton -->
  <rect x="232" y="372" width="496" height="156" rx="10" fill="#0f172a" stroke="#1e293b"/>
  <rect x="248" y="392" width="80" height="8" rx="4" fill="#475569"/>
  <rect x="352" y="392" width="80" height="8" rx="4" fill="#475569"/>
  <rect x="456" y="392" width="80" height="8" rx="4" fill="#475569"/>
  <rect x="560" y="392" width="80" height="8" rx="4" fill="#475569"/>
  <rect x="248" y="420" width="464" height="1" fill="#1e293b"/>
  <rect x="248" y="440" width="80" height="8" rx="4" fill="#334155"/>
  <rect x="352" y="440" width="80" height="8" rx="4" fill="#334155"/>
  <rect x="456" y="440" width="80" height="8" rx="4" fill="#334155"/>
  <rect x="560" y="440" width="80" height="8" rx="4" fill="#334155"/>
  <rect x="248" y="472" width="80" height="8" rx="4" fill="#334155"/>
  <rect x="352" y="472" width="80" height="8" rx="4" fill="#334155"/>
  <rect x="456" y="472" width="80" height="8" rx="4" fill="#334155"/>
  <rect x="560" y="472" width="80" height="8" rx="4" fill="#334155"/>
  <text x="480" y="562" text-anchor="middle" fill="#f8fafc" font-family="system-ui,sans-serif" font-size="14" font-weight="600">Protos Admin Console ť CRM</text>
</svg>
